<svg width="96" height="96" viewBox="0 0 96 96" fill="none" xmlns="http://www.w3.org/2000/svg">
<path d="M83.2819 6H13.1775C9.34687 6 6 8.75625 6 12.5419V82.8019C6 86.6081 9.34687 90 13.1775 90H83.2612C87.1125 90 90 86.5856 90 82.8019V12.5419C90.0225 8.75625 87.1125 6 83.2819 6ZM32.0381 76.0181H20.0044V38.6025H32.0381V76.0181ZM26.4375 32.9137H26.3512C22.5 32.9137 20.0062 30.0469 20.0062 26.4581C20.0062 22.8038 22.5656 20.0044 26.5031 20.0044C30.4406 20.0044 32.85 22.7831 32.9363 26.4581C32.9344 30.0469 30.4406 32.9137 26.4375 32.9137ZM76.0181 76.0181H63.9844V55.56C63.9844 50.6588 62.2331 47.31 57.8794 47.31C54.5531 47.31 52.5844 49.56 51.7087 51.7519C51.3806 52.5394 51.2925 53.6119 51.2925 54.7069V76.0181H39.2588V38.6025H51.2925V43.8094C53.0437 41.3156 55.7794 37.7269 62.145 37.7269C70.0444 37.7269 76.02 42.9338 76.02 54.1594L76.0181 76.0181Z" fill="white"/>
</svg>
